<svg xmlns="http://www.w3.org/2000/svg" width="1200" height="860" font-family="'Segoe UI', Arial, sans-serif">
  <!-- Background -->
  <rect width="1200" height="860" fill="#F4F5F7"/>

  <!-- Top Nav Bar -->
  <rect width="1200" height="52" fill="#0052CC"/>
  <text x="20" y="33" fill="white" font-size="16" font-weight="700">Jira Initiative Tracker</text>
  <text x="462" y="33" fill="white" font-size="13" font-weight="600">Portfolio</text>
  <rect x="455" y="46" width="62" height="3" fill="white" rx="1"/>

  <!-- Page Header -->
  <text x="24" y="88" fill="#172B4D" font-size="20" font-weight="700">Resource Load</text>
  <text x="24" y="108" fill="#6B778C" font-size="13">Who is working on what — across epics, stories and subtasks — for PI 2026-Q2</text>

  <!-- Filter bar -->
  <rect x="24" y="120" width="1152" height="40" fill="white" rx="6" stroke="#DFE1E6" stroke-width="1"/>
  <rect x="40" y="132" width="160" height="16" fill="#F4F5F7" rx="3"/>
  <text x="48" y="144" fill="#172B4D" font-size="12" font-weight="600">PI 2026-Q2</text>
  <text x="190" y="144" fill="#6B778C" font-size="10">v</text>
  <rect x="216" y="132" width="140" height="16" fill="#F4F5F7" rx="3"/>
  <text x="224" y="144" fill="#172B4D" font-size="12" font-weight="600">All Projects</text>
  <text x="346" y="144" fill="#6B778C" font-size="10">v</text>
  <!-- Sort -->
  <text x="400" y="144" fill="#6B778C" font-size="11">Sort by:</text>
  <rect x="448" y="132" width="110" height="16" fill="#F4F5F7" rx="3"/>
  <text x="456" y="144" fill="#0052CC" font-size="12" font-weight="600">Load Score</text>
  <text x="550" y="144" fill="#6B778C" font-size="10">v</text>
  <!-- Legend -->
  <rect x="800" y="135" width="10" height="10" fill="#DE350B" rx="2"/>
  <text x="814" y="144" fill="#6B778C" font-size="11">High load</text>
  <rect x="886" y="135" width="10" height="10" fill="#FF8B00" rx="2"/>
  <text x="900" y="144" fill="#6B778C" font-size="11">Medium</text>
  <rect x="966" y="135" width="10" height="10" fill="#36B37E" rx="2"/>
  <text x="980" y="144" fill="#6B778C" font-size="11">Low</text>
  <rect x="1030" y="135" width="10" height="10" fill="#DFE1E6" rx="2"/>
  <text x="1044" y="144" fill="#6B778C" font-size="11">Unassigned</text>

  <!-- Column headers -->
  <rect x="24" y="172" width="1152" height="24" fill="#F4F5F7" rx="4"/>
  <text x="88" y="188" fill="#6B778C" font-size="10" font-weight="700">PERSON</text>
  <text x="280" y="188" fill="#6B778C" font-size="10" font-weight="700">EPICS OWNED</text>
  <text x="560" y="188" fill="#6B778C" font-size="10" font-weight="700">STORIES / SUBTASKS</text>
  <text x="760" y="188" fill="#6B778C" font-size="10" font-weight="700">OPEN TASKS</text>
  <text x="870" y="188" fill="#6B778C" font-size="10" font-weight="700">LOAD SCORE</text>
  <text x="1060" y="188" fill="#6B778C" font-size="10" font-weight="700">INITIATIVES</text>

  <!-- ═══════════════════════════════════════════════ -->
  <!-- ROW 1 — Michael Fulton — HIGH -->
  <!-- ═══════════════════════════════════════════════ -->
  <rect x="24" y="198" width="1152" height="72" fill="white" rx="6" stroke="#FFEBE6" stroke-width="1.5"/>
  <rect x="24" y="198" width="4" height="72" fill="#DE350B" rx="2"/>

  <!-- Avatar -->
  <circle cx="60" cy="234" r="18" fill="#0052CC"/>
  <text x="50" y="239" fill="white" font-size="13" font-weight="700">MF</text>

  <!-- Name + role -->
  <text x="88" y="226" fill="#172B4D" font-size="13" font-weight="700">Michael Fulton</text>
  <text x="88" y="242" fill="#6B778C" font-size="11">Backend Engineer</text>
  <rect x="88" y="250" width="52" height="13" fill="#FFEBE6" rx="6"/>
  <text x="96" y="260" fill="#DE350B" font-size="9" font-weight="700">HIGH LOAD</text>

  <!-- Epics owned -->
  <!-- Epic tag: AUTH-12 BLOCKED -->
  <rect x="280" y="210" width="86" height="20" fill="#FFEBE6" rx="4"/>
  <rect x="280" y="210" width="4" height="20" fill="#DE350B" rx="2"/>
  <text x="289" y="224" fill="#DE350B" font-size="10" font-weight="700">AUTH-12</text>
  <text x="289" y="234" fill="#6B778C" font-size="9">Auth Revamp</text>
  <!-- Epic owner crown indicator -->
  <text x="355" y="218" fill="#FF8B00" font-size="9">owner</text>

  <rect x="280" y="236" width="86" height="20" fill="#FFEBE6" rx="4"/>
  <rect x="280" y="236" width="4" height="20" fill="#DE350B" rx="2"/>
  <text x="289" y="250" fill="#DE350B" font-size="10" font-weight="700">SEC-04</text>
  <text x="289" y="260" fill="#6B778C" font-size="9">SSO Integration</text>

  <!-- Also contributing (not owner) -->
  <rect x="374" y="210" width="82" height="20" fill="#FFFAE6" rx="4"/>
  <rect x="374" y="210" width="4" height="20" fill="#FF8B00" rx="2"/>
  <text x="383" y="222" fill="#FF8B00" font-size="10" font-weight="700">PAY-08</text>
  <text x="383" y="232" fill="#6B778C" font-size="9">Payments 2.0</text>
  <text x="445" y="218" fill="#97A0AF" font-size="9">contrib</text>

  <!-- Stories bar -->
  <text x="560" y="222" fill="#6B778C" font-size="10">Total stories/subtasks</text>
  <rect x="560" y="228" width="180" height="10" fill="#DFE1E6" rx="5"/>
  <rect x="560" y="228" width="54" height="10" fill="#36B37E" rx="5"/>
  <rect x="614" y="228" width="126" height="10" fill="#DE350B" rx="5"/>
  <text x="560" y="250" fill="#36B37E" font-size="10">9 done</text>
  <text x="600" y="250" fill="#6B778C" font-size="10">/</text>
  <text x="610" y="250" fill="#DE350B" font-size="10">21 open</text>
  <text x="660" y="250" fill="#6B778C" font-size="10">of 30 total</text>
  <text x="560" y="263" fill="#97A0AF" font-size="9">across 3 epics</text>

  <!-- Open tasks count -->
  <text x="760" y="228" fill="#DE350B" font-size="24" font-weight="700">21</text>
  <text x="790" y="228" fill="#6B778C" font-size="11"> open</text>
  <text x="760" y="248" fill="#6B778C" font-size="10">2 epics owned</text>
  <text x="760" y="261" fill="#6B778C" font-size="10">1 contrib epic</text>

  <!-- Load score bar -->
  <text x="870" y="222" fill="#6B778C" font-size="10">Score: epics×4 + open tasks</text>
  <text x="870" y="238" fill="#DE350B" font-size="18" font-weight="700">29</text>
  <text x="903" y="238" fill="#6B778C" font-size="11"> / 40 max</text>
  <rect x="870" y="244" width="160" height="8" fill="#DFE1E6" rx="4"/>
  <rect x="870" y="244" width="116" height="8" fill="#DE350B" rx="4"/>
  <text x="870" y="262" fill="#97A0AF" font-size="9">(2 owned × 4) + 21 open = 29</text>

  <!-- Initiatives -->
  <rect x="1060" y="212" width="56" height="16" fill="#EAE6FF" rx="8"/>
  <text x="1068" y="224" fill="#403294" font-size="10" font-weight="600">PLAT</text>
  <rect x="1122" y="212" width="40" height="16" fill="#E6FCFF" rx="8"/>
  <text x="1128" y="224" fill="#006187" font-size="10" font-weight="600">SEC</text>
  <rect x="1060" y="234" width="40" height="16" fill="#FFF0B3" rx="8"/>
  <text x="1066" y="246" fill="#974F0C" font-size="10" font-weight="600">PAY</text>
  <text x="1060" y="262" fill="#97A0AF" font-size="9">3 initiatives</text>

  <!-- ═══════════════════════════════════════════════ -->
  <!-- ROW 2 — Jayraj V — HIGH -->
  <!-- ═══════════════════════════════════════════════ -->
  <rect x="24" y="278" width="1152" height="72" fill="white" rx="6" stroke="#FFEBE6" stroke-width="1.5"/>
  <rect x="24" y="278" width="4" height="72" fill="#DE350B" rx="2"/>

  <circle cx="60" cy="314" r="18" fill="#6554C0"/>
  <text x="51" y="319" fill="white" font-size="13" font-weight="700">JV</text>
  <text x="88" y="306" fill="#172B4D" font-size="13" font-weight="700">Jayraj V</text>
  <text x="88" y="322" fill="#6B778C" font-size="11">Tech Lead</text>
  <rect x="88" y="330" width="52" height="13" fill="#FFEBE6" rx="6"/>
  <text x="96" y="340" fill="#DE350B" font-size="9" font-weight="700">HIGH LOAD</text>

  <rect x="280" y="290" width="86" height="20" fill="#FFEBE6" rx="4"/>
  <rect x="280" y="290" width="4" height="20" fill="#DE350B" rx="2"/>
  <text x="289" y="304" fill="#DE350B" font-size="10" font-weight="700">AUTH-01</text>
  <text x="289" y="314" fill="#6B778C" font-size="9">Auth Revamp</text>
  <text x="355" y="298" fill="#FF8B00" font-size="9">owner</text>

  <rect x="280" y="316" width="86" height="20" fill="#FFEBE6" rx="4"/>
  <rect x="280" y="316" width="4" height="20" fill="#DE350B" rx="2"/>
  <text x="289" y="330" fill="#DE350B" font-size="10" font-weight="700">SEC-01</text>
  <text x="289" y="340" fill="#6B778C" font-size="9">SSO Integration</text>
  <text x="355" y="324" fill="#FF8B00" font-size="9">owner</text>

  <text x="560" y="302" fill="#6B778C" font-size="10">Total stories/subtasks</text>
  <rect x="560" y="308" width="180" height="10" fill="#DFE1E6" rx="5"/>
  <rect x="560" y="308" width="36" height="10" fill="#36B37E" rx="5"/>
  <rect x="596" y="308" width="144" height="10" fill="#DE350B" rx="5"/>
  <text x="560" y="330" fill="#36B37E" font-size="10">6 done</text>
  <text x="600" y="330" fill="#6B778C" font-size="10">/</text>
  <text x="610" y="330" fill="#DE350B" font-size="10">18 open</text>
  <text x="660" y="330" fill="#6B778C" font-size="10">of 24 total</text>
  <text x="560" y="343" fill="#97A0AF" font-size="9">across 2 epics</text>

  <text x="760" y="308" fill="#DE350B" font-size="24" font-weight="700">18</text>
  <text x="790" y="308" fill="#6B778C" font-size="11"> open</text>
  <text x="760" y="328" fill="#6B778C" font-size="10">2 epics owned</text>

  <text x="870" y="302" fill="#6B778C" font-size="10">Score: epics×4 + open tasks</text>
  <text x="870" y="318" fill="#DE350B" font-size="18" font-weight="700">26</text>
  <text x="903" y="318" fill="#6B778C" font-size="11"> / 40 max</text>
  <rect x="870" y="324" width="160" height="8" fill="#DFE1E6" rx="4"/>
  <rect x="870" y="324" width="104" height="8" fill="#DE350B" rx="4"/>
  <text x="870" y="342" fill="#97A0AF" font-size="9">(2 owned × 4) + 18 open = 26</text>

  <rect x="1060" y="292" width="56" height="16" fill="#EAE6FF" rx="8"/>
  <text x="1068" y="304" fill="#403294" font-size="10" font-weight="600">PLAT</text>
  <rect x="1122" y="292" width="40" height="16" fill="#E6FCFF" rx="8"/>
  <text x="1128" y="304" fill="#006187" font-size="10" font-weight="600">SEC</text>
  <text x="1060" y="322" fill="#97A0AF" font-size="9">2 initiatives</text>

  <!-- ═══════════════════════════════════════════════ -->
  <!-- ROW 3 — Priya B — MEDIUM -->
  <!-- ═══════════════════════════════════════════════ -->
  <rect x="24" y="358" width="1152" height="72" fill="white" rx="6" stroke="#FFE380" stroke-width="1.5"/>
  <rect x="24" y="358" width="4" height="72" fill="#FF8B00" rx="2"/>

  <circle cx="60" cy="394" r="18" fill="#00B8D9"/>
  <text x="51" y="399" fill="white" font-size="13" font-weight="700">PB</text>
  <text x="88" y="386" fill="#172B4D" font-size="13" font-weight="700">Priya B</text>
  <text x="88" y="402" fill="#6B778C" font-size="11">Mobile Engineer</text>
  <rect x="88" y="410" width="62" height="13" fill="#FFFAE6" rx="6"/>
  <text x="94" y="420" fill="#FF8B00" font-size="9" font-weight="700">MEDIUM LOAD</text>

  <rect x="280" y="370" width="86" height="20" fill="#FFFAE6" rx="4"/>
  <rect x="280" y="370" width="4" height="20" fill="#FF8B00" rx="2"/>
  <text x="289" y="384" fill="#FF8B00" font-size="10" font-weight="700">MOB-03</text>
  <text x="289" y="394" fill="#6B778C" font-size="9">Mobile Rewrite</text>
  <text x="355" y="378" fill="#FF8B00" font-size="9">owner</text>

  <rect x="280" y="396" width="86" height="20" fill="#FFFAE6" rx="4"/>
  <rect x="280" y="396" width="4" height="20" fill="#FF8B00" rx="2"/>
  <text x="289" y="410" fill="#FF8B00" font-size="10" font-weight="700">MOB-07</text>
  <text x="289" y="420" fill="#6B778C" font-size="9">Mobile Rewrite</text>
  <text x="355" y="404" fill="#97A0AF" font-size="9">contrib</text>

  <text x="560" y="382" fill="#6B778C" font-size="10">Total stories/subtasks</text>
  <rect x="560" y="388" width="180" height="10" fill="#DFE1E6" rx="5"/>
  <rect x="560" y="388" width="72" height="10" fill="#36B37E" rx="5"/>
  <rect x="632" y="388" width="72" height="10" fill="#FF8B00" rx="5"/>
  <text x="560" y="410" fill="#36B37E" font-size="10">12 done</text>
  <text x="604" y="410" fill="#6B778C" font-size="10">/</text>
  <text x="614" y="410" fill="#FF8B00" font-size="10">12 open</text>
  <text x="658" y="410" fill="#6B778C" font-size="10">of 24 total</text>
  <text x="560" y="423" fill="#97A0AF" font-size="9">across 2 epics</text>

  <text x="760" y="388" fill="#FF8B00" font-size="24" font-weight="700">12</text>
  <text x="790" y="388" fill="#6B778C" font-size="11"> open</text>
  <text x="760" y="408" fill="#6B778C" font-size="10">1 epic owned</text>
  <text x="760" y="421" fill="#6B778C" font-size="10">1 contrib epic</text>

  <text x="870" y="382" fill="#6B778C" font-size="10">Score: epics×4 + open tasks</text>
  <text x="870" y="398" fill="#FF8B00" font-size="18" font-weight="700">16</text>
  <text x="903" y="398" fill="#6B778C" font-size="11"> / 40 max</text>
  <rect x="870" y="404" width="160" height="8" fill="#DFE1E6" rx="4"/>
  <rect x="870" y="404" width="64" height="8" fill="#FF8B00" rx="4"/>
  <text x="870" y="422" fill="#97A0AF" font-size="9">(1 owned × 4) + 12 open = 16</text>

  <rect x="1060" y="372" width="42" height="16" fill="#E6FCFF" rx="8"/>
  <text x="1066" y="384" fill="#006187" font-size="10" font-weight="600">MOB</text>
  <text x="1060" y="402" fill="#97A0AF" font-size="9">1 initiative</text>

  <!-- ═══════════════════════════════════════════════ -->
  <!-- ROW 4 — Sneha K — MEDIUM -->
  <!-- ═══════════════════════════════════════════════ -->
  <rect x="24" y="438" width="1152" height="72" fill="white" rx="6" stroke="#FFE380" stroke-width="1.5"/>
  <rect x="24" y="438" width="4" height="72" fill="#FF8B00" rx="2"/>

  <circle cx="60" cy="474" r="18" fill="#FF5630"/>
  <text x="51" y="479" fill="white" font-size="13" font-weight="700">SK</text>
  <text x="88" y="466" fill="#172B4D" font-size="13" font-weight="700">Sneha K</text>
  <text x="88" y="482" fill="#6B778C" font-size="11">QA Engineer</text>
  <rect x="88" y="490" width="62" height="13" fill="#FFFAE6" rx="6"/>
  <text x="94" y="500" fill="#FF8B00" font-size="9" font-weight="700">MEDIUM LOAD</text>

  <rect x="280" y="450" width="86" height="20" fill="#E3FCEF" rx="4"/>
  <rect x="280" y="450" width="4" height="20" fill="#36B37E" rx="2"/>
  <text x="289" y="464" fill="#36B37E" font-size="10" font-weight="700">DASH-02</text>
  <text x="289" y="474" fill="#6B778C" font-size="9">Dashboard UI</text>
  <text x="355" y="458" fill="#FF8B00" font-size="9">owner</text>

  <rect x="280" y="476" width="86" height="20" fill="#FFFAE6" rx="4"/>
  <rect x="280" y="476" width="4" height="20" fill="#FF8B00" rx="2"/>
  <text x="289" y="490" fill="#FF8B00" font-size="10" font-weight="700">PAY-11</text>
  <text x="289" y="500" fill="#6B778C" font-size="9">Payments 2.0</text>
  <text x="355" y="484" fill="#97A0AF" font-size="9">contrib</text>

  <text x="560" y="462" fill="#6B778C" font-size="10">Total stories/subtasks</text>
  <rect x="560" y="468" width="180" height="10" fill="#DFE1E6" rx="5"/>
  <rect x="560" y="468" width="99" height="10" fill="#36B37E" rx="5"/>
  <rect x="659" y="468" width="45" height="10" fill="#FF8B00" rx="5"/>
  <text x="560" y="490" fill="#36B37E" font-size="10">11 done</text>
  <text x="604" y="490" fill="#6B778C" font-size="10">/</text>
  <text x="614" y="490" fill="#FF8B00" font-size="10">5 open</text>
  <text x="654" y="490" fill="#6B778C" font-size="10">of 16 total</text>
  <text x="560" y="503" fill="#97A0AF" font-size="9">across 2 epics</text>

  <text x="760" y="468" fill="#FF8B00" font-size="24" font-weight="700">5</text>
  <text x="778" y="468" fill="#6B778C" font-size="11"> open</text>
  <text x="760" y="488" fill="#6B778C" font-size="10">1 epic owned</text>
  <text x="760" y="501" fill="#6B778C" font-size="10">1 contrib epic</text>

  <text x="870" y="462" fill="#6B778C" font-size="10">Score: epics×4 + open tasks</text>
  <text x="870" y="478" fill="#FF8B00" font-size="18" font-weight="700">9</text>
  <text x="890" y="478" fill="#6B778C" font-size="11"> / 40 max</text>
  <rect x="870" y="484" width="160" height="8" fill="#DFE1E6" rx="4"/>
  <rect x="870" y="484" width="36" height="8" fill="#FF8B00" rx="4"/>
  <text x="870" y="502" fill="#97A0AF" font-size="9">(1 owned × 4) + 5 open = 9</text>

  <rect x="1060" y="452" width="56" height="16" fill="#EAE6FF" rx="8"/>
  <text x="1068" y="464" fill="#403294" font-size="10" font-weight="600">PLAT</text>
  <rect x="1122" y="452" width="40" height="16" fill="#FFF0B3" rx="8"/>
  <text x="1128" y="464" fill="#974F0C" font-size="10" font-weight="600">PAY</text>
  <text x="1060" y="482" fill="#97A0AF" font-size="9">2 initiatives</text>

  <!-- ═══════════════════════════════════════════════ -->
  <!-- ROW 5 — Cari Voor — LOW -->
  <!-- ═══════════════════════════════════════════════ -->
  <rect x="24" y="518" width="1152" height="72" fill="white" rx="6" stroke="#DFE1E6" stroke-width="1"/>
  <rect x="24" y="518" width="4" height="72" fill="#36B37E" rx="2"/>

  <circle cx="60" cy="554" r="18" fill="#36B37E"/>
  <text x="51" y="559" fill="white" font-size="13" font-weight="700">CV</text>
  <text x="88" y="546" fill="#172B4D" font-size="13" font-weight="700">Cari Voor</text>
  <text x="88" y="562" fill="#6B778C" font-size="11">Frontend Engineer</text>
  <rect x="88" y="570" width="42" height="13" fill="#E3FCEF" rx="6"/>
  <text x="95" y="580" fill="#006644" font-size="9" font-weight="700">LOW</text>

  <rect x="280" y="530" width="86" height="20" fill="#E3FCEF" rx="4"/>
  <rect x="280" y="530" width="4" height="20" fill="#36B37E" rx="2"/>
  <text x="289" y="544" fill="#36B37E" font-size="10" font-weight="700">DASH-01</text>
  <text x="289" y="554" fill="#6B778C" font-size="9">Dashboard UI</text>
  <text x="355" y="538" fill="#FF8B00" font-size="9">owner</text>

  <text x="560" y="542" fill="#6B778C" font-size="10">Total stories/subtasks</text>
  <rect x="560" y="548" width="180" height="10" fill="#DFE1E6" rx="5"/>
  <rect x="560" y="548" width="126" height="10" fill="#36B37E" rx="5"/>
  <rect x="686" y="548" width="18" height="10" fill="#FF8B00" rx="5"/>
  <text x="560" y="570" fill="#36B37E" font-size="10">14 done</text>
  <text x="604" y="570" fill="#6B778C" font-size="10">/</text>
  <text x="614" y="570" fill="#36B37E" font-size="10">2 open</text>
  <text x="652" y="570" fill="#6B778C" font-size="10">of 16 total</text>
  <text x="560" y="583" fill="#97A0AF" font-size="9">across 1 epic</text>

  <text x="760" y="548" fill="#36B37E" font-size="24" font-weight="700">2</text>
  <text x="778" y="548" fill="#6B778C" font-size="11"> open</text>
  <text x="760" y="568" fill="#6B778C" font-size="10">1 epic owned</text>

  <text x="870" y="542" fill="#6B778C" font-size="10">Score: epics×4 + open tasks</text>
  <text x="870" y="558" fill="#36B37E" font-size="18" font-weight="700">6</text>
  <text x="890" y="558" fill="#6B778C" font-size="11"> / 40 max</text>
  <rect x="870" y="564" width="160" height="8" fill="#DFE1E6" rx="4"/>
  <rect x="870" y="564" width="24" height="8" fill="#36B37E" rx="4"/>
  <text x="870" y="582" fill="#97A0AF" font-size="9">(1 owned × 4) + 2 open = 6</text>

  <rect x="1060" y="532" width="56" height="16" fill="#EAE6FF" rx="8"/>
  <text x="1068" y="544" fill="#403294" font-size="10" font-weight="600">PLAT</text>
  <text x="1060" y="562" fill="#97A0AF" font-size="9">1 initiative</text>

  <!-- ═══════════════════════════════════════════════ -->
  <!-- ROW 6 — Unassigned epics callout -->
  <!-- ═══════════════════════════════════════════════ -->
  <rect x="24" y="598" width="1152" height="56" fill="#F4F5F7" rx="6" stroke="#DFE1E6" stroke-width="1" stroke-dasharray="4,3"/>
  <text x="44" y="622" fill="#97A0AF" font-size="12" font-weight="600">Unassigned</text>
  <text x="44" y="638" fill="#97A0AF" font-size="11">3 epics have no owner assigned in Jira</text>
  <rect x="280" y="610" width="78" height="18" fill="white" rx="4" stroke="#DFE1E6" stroke-width="1"/>
  <text x="289" y="623" fill="#6B778C" font-size="10">API-09</text>
  <text x="289" y="633" fill="#97A0AF" font-size="9">API Gateway</text>
  <rect x="366" y="610" width="78" height="18" fill="white" rx="4" stroke="#DFE1E6" stroke-width="1"/>
  <text x="375" y="623" fill="#6B778C" font-size="10">MOB-11</text>
  <text x="375" y="633" fill="#97A0AF" font-size="9">Mobile Rewrite</text>
  <rect x="452" y="610" width="78" height="18" fill="white" rx="4" stroke="#DFE1E6" stroke-width="1"/>
  <text x="461" y="623" fill="#6B778C" font-size="10">NOTIF-03</text>
  <text x="461" y="633" fill="#97A0AF" font-size="9">Notif Hub</text>
  <rect x="1080" y="610" width="80" height="20" fill="white" rx="4" stroke="#DFE1E6" stroke-width="1"/>
  <text x="1092" y="624" fill="#0052CC" font-size="11" font-weight="600">Assign now</text>

  <!-- ═══════════════════════════════════════════════ -->
  <!-- CAPACITY INSIGHT PANEL -->
  <!-- ═══════════════════════════════════════════════ -->
  <rect x="24" y="670" width="1152" height="162" fill="white" rx="6" stroke="#DFE1E6" stroke-width="1"/>
  <text x="40" y="694" fill="#172B4D" font-size="14" font-weight="700">Capacity Insights</text>
  <text x="40" y="710" fill="#6B778C" font-size="11">Patterns and risks detected across the team for PI 2026-Q2</text>

  <!-- Insight 1 - Bottleneck -->
  <rect x="40" y="722" width="340" height="90" fill="#FFF8F6" rx="6" stroke="#FF8F73" stroke-width="1"/>
  <rect x="40" y="722" width="340" height="3" fill="#DE350B" rx="2"/>
  <text x="56" y="742" fill="#DE350B" font-size="11" font-weight="700">BOTTLENECK RISK</text>
  <text x="56" y="760" fill="#172B4D" font-size="12" font-weight="600">Michael Fulton spans 3 initiatives</text>
  <text x="56" y="776" fill="#6B778C" font-size="11">Owns 2 blocked epics + contributing to 1 at-risk.</text>
  <text x="56" y="790" fill="#6B778C" font-size="11">Single point of failure for AUTH and SSO delivery.</text>
  <rect x="56" y="800" width="100" height="6" fill="#DFE1E6" rx="3"/>
  <rect x="56" y="800" width="72" height="6" fill="#DE350B" rx="3"/>
  <text x="162" y="806" fill="#DE350B" font-size="9">Load 29/40</text>

  <!-- Insight 2 - Spread -->
  <rect x="400" y="722" width="340" height="90" fill="#FFFAE6" rx="6" stroke="#FFE380" stroke-width="1"/>
  <rect x="400" y="722" width="340" height="3" fill="#FF8B00" rx="2"/>
  <text x="416" y="742" fill="#FF8B00" font-size="11" font-weight="700">SPREAD TOO THIN</text>
  <text x="416" y="760" fill="#172B4D" font-size="12" font-weight="600">Sneha K owns epics across 2 projects</text>
  <text x="416" y="776" fill="#6B778C" font-size="11">QA resource split between Dashboard (PLAT)</text>
  <text x="416" y="790" fill="#6B778C" font-size="11">and Payments (PAY). Context switching risk.</text>
  <rect x="416" y="800" width="100" height="6" fill="#DFE1E6" rx="3"/>
  <rect x="416" y="800" width="36" height="6" fill="#FF8B00" rx="3"/>
  <text x="522" y="806" fill="#FF8B00" font-size="9">Load 9/40</text>

  <!-- Insight 3 - Available capacity -->
  <rect x="760" y="722" width="340" height="90" fill="#E3FCEF" rx="6" stroke="#ABF5D1" stroke-width="1"/>
  <rect x="760" y="722" width="340" height="3" fill="#36B37E" rx="2"/>
  <text x="776" y="742" fill="#006644" font-size="11" font-weight="700">AVAILABLE CAPACITY</text>
  <text x="776" y="760" fill="#172B4D" font-size="12" font-weight="600">Cari Voor has headroom this PI</text>
  <text x="776" y="776" fill="#6B778C" font-size="11">Only 2 open tasks, 1 owned epic nearly done.</text>
  <text x="776" y="790" fill="#6B778C" font-size="11">Could absorb epics from overloaded members.</text>
  <rect x="776" y="800" width="100" height="6" fill="#DFE1E6" rx="3"/>
  <rect x="776" y="800" width="24" height="6" fill="#36B37E" rx="3"/>
  <text x="882" y="806" fill="#36B37E" font-size="9">Load 6/40</text>

  <!-- footer -->
  <text x="24" y="848" fill="#97A0AF" font-size="10">PI 2026-Q2  5 people  18 epics  3 projects  Last synced 2 min ago</text>
  <text x="980" y="848" fill="#0052CC" font-size="10">Export CSV</text>
  <text x="1060" y="848" fill="#0052CC" font-size="10">Share View</text>
  <text x="1130" y="848" fill="#0052CC" font-size="10">Print</text>
</svg>
